{
  "accessors": [
    {
      "bufferView": 2,
      "componentType": 5126,
      "count": 72,
      "max": [
        -1.5931129455566406,
        -0.22857199609279633,
        0.5732190012931824
      ],
      "min": [
        -1.626512050628662,
        -0.2527819871902466,
        0.46629801392555237
      ],
      "type": "VEC3"
    },
    {
      "bufferView": 2,
      "byteOffset": 864,
      "componentType": 5126,
      "count": 72,
      "max": [
        0.9998538494110107,
        1.0,
        0.9998538494110107
      ],
      "min": [
        -0.9998538494110107,
        -1.0,
        -1.0
      ],
      "type": "VEC3"
    },
    {
      "bufferView": 1,
      "componentType": 5126,
      "count": 72,
      "max": [
        0.11800900101661682,
        0.9893289804458618
      ],
      "min": [
        0.024343999102711678,
        0.8072130084037781
      ],
      "type": "VEC2"
    },
    {
      "bufferView": 0,
      "componentType": 5125,
      "count": 168,
      "type": "SCALAR"
    },
    {
      "bufferView": 2,
      "byteOffset": 1728,
      "componentType": 5126,
      "count": 322,
      "max": [
        -1.371716022491455,
        -0.18799500167369843,
        0.5490450263023376
      ],
      "min": [
        -1.5650689601898193,
        -0.292822003364563,
        0.2732299864292145
      ],
      "type": "VEC3"
    },
    {
      "bufferView": 2,
      "byteOffset": 5592,
      "componentType": 5126,
      "count": 322,
      "max": [
        0.9998875856399536,
        1.0,
        0.99998939037323
      ],
      "min": [
        -0.9969218969345093,
        -1.0,
        -0.99722820520401
      ],
      "type": "VEC3"
    },
    {
      "bufferView": 3,
      "componentType": 5126,
      "count": 322,
      "max": [
        0.53477543592453,
        0.9999192953109741,
        0.9963943958282471,
        1.0
      ],
      "min": [
        -0.9227659702301025,
        -0.9999577403068542,
        -0.9288120865821838,
        1.0
      ],
      "type": "VEC4"
    },
    {
      "bufferView": 1,
      "byteOffset": 576,
      "componentType": 5126,
      "count": 322,
      "max": [
        0.6891850233078003,
        0.5355929732322693
      ],
      "min": [
        0.06037500128149986,
        0.043540000915527344
      ],
      "type": "VEC2"
    },
    {
      "bufferView": 0,
      "byteOffset": 672,
      "componentType": 5125,
      "count": 864,
      "type": "SCALAR"
    },
    {
      "bufferView": 2,
      "byteOffset": 9456,
      "componentType": 5126,
      "count": 1003,
      "max": [
        -1.3051979541778564,
        -0.18828199803829193,
        0.8101750016212463
      ],
      "min": [
        -2.1588449478149414,
        -0.2925350069999695,
        0.249426007270813
      ],
      "type": "VEC3"
    },
    {
      "bufferView": 2,
      "byteOffset": 21492,
      "componentType": 5126,
      "count": 1003,
      "max": [
        1.0,
        1.0,
        1.0
      ],
      "min": [
        -1.0,
        -1.0,
        -1.0
      ],
      "type": "VEC3"
    },
    {
      "bufferView": 3,
      "byteOffset": 5152,
      "componentType": 5126,
      "count": 1003,
      "max": [
        0.999228835105896,
        0.999995231628418,
        0.9999253749847412,
        1.0
      ],
      "min": [
        -0.9988808035850525,
        -0.9998716711997986,
        -0.9972496032714844,
        1.0
      ],
      "type": "VEC4"
    },
    {
      "bufferView": 1,
      "byteOffset": 3152,
      "componentType": 5126,
      "count": 1003,
      "max": [
        0.9356849789619446,
        0.9180170297622681
      ],
      "min": [
        0.012632000260055065,
        0.005896999966353178
      ],
      "type": "VEC2"
    },
    {
      "bufferView": 0,
      "byteOffset": 4128,
      "componentType": 5125,
      "count": 2772,
      "type": "SCALAR"
    },
    {
      "bufferView": 2,
      "byteOffset": 33528,
      "componentType": 5126,
      "count": 680,
      "max": [
        -1.290017008781433,
        -0.17473700642585754,
        0.795710027217865
      ],
      "min": [
        -2.1871540546417236,
        -0.30608001351356506,
        0.40637901425361633
      ],
      "type": "VEC3"
    },
    {
      "bufferView": 2,
      "byteOffset": 41688,
      "componentType": 5126,
      "count": 680,
      "max": [
        0.9924690127372742,
        0.999943733215332,
        1.0
      ],
      "min": [
        -0.9998767375946045,
        -0.999943733215332,
        -0.9999991655349731
      ],
      "type": "VEC3"
    },
    {
      "bufferView": 3,
      "byteOffset": 21200,
      "componentType": 5126,
      "count": 680,
      "max": [
        0.8531243205070496,
        0.9999956488609314,
        0.9954192638397217,
        1.0
      ],
      "min": [
        -0.9851719737052917,
        -0.999934732913971,
        -0.9961137771606445,
        1.0
      ],
      "type": "VEC4"
    },
    {
      "bufferView": 1,
      "byteOffset": 11176,
      "componentType": 5126,
      "count": 680,
      "max": [
        0.9907339811325073,
        0.9494220018386841
      ],
      "min": [
        0.25956299901008606,
        0.18968099355697632
      ],
      "type": "VEC2"
    },
    {
      "bufferView": 0,
      "byteOffset": 15216,
      "componentType": 5125,
      "count": 2724,
      "type": "SCALAR"
    }
  ],
  "asset": {
    "extras": {
      "author": "Eduardo.Salas (https://sketchfab.com/Eduardo.Salas)",
      "license": "CC-BY-4.0 (http://creativecommons.org/licenses/by/4.0/)",
      "source": "https://sketchfab.com/3d-models/futuristic-weapon-27f1b69847c64196b470305c294cd9bd",
      "title": "futurístic weapon"
    },
    "generator": "Sketchfab-11.10.0",
    "version": "2.0"
  },
  "bufferViews": [
    {
      "buffer": 0,
      "byteLength": 26112,
      "name": "floatBufferViews",
      "target": 34963
    },
    {
      "buffer": 0,
      "byteLength": 16616,
      "byteOffset": 26112,
      "byteStride": 8,
      "name": "floatBufferViews",
      "target": 34962
    },
    {
      "buffer": 0,
      "byteLength": 49848,
      "byteOffset": 42728,
      "byteStride": 12,
      "name": "floatBufferViews",
      "target": 34962
    },
    {
      "buffer": 0,
      "byteLength": 32080,
      "byteOffset": 92576,
      "byteStride": 16,
      "name": "floatBufferViews",
      "target": 34962
    }
  ],
  "buffers": [
    {
      "byteLength": 124656,
      "uri": "scene.bin"
    }
  ],
  "images": [
    {
      "uri": "textures/goma_baseColor.png"
    },
    {
      "uri": "textures/goma_metallicRoughness.png"
    },
    {
      "uri": "textures/goma_normal.png"
    },
    {
      "uri": "textures/metal_baseColor.png"
    },
    {
      "uri": "textures/metal_metallicRoughness.png"
    },
    {
      "uri": "textures/metal_emissive.png"
    },
    {
      "uri": "textures/metal_normal.png"
    },
    {
      "uri": "textures/plastico_baseColor.png"
    },
    {
      "uri": "textures/plastico_metallicRoughness.png"
    },
    {
      "uri": "textures/plastico_normal.png"
    }
  ],
  "materials": [
    {
      "doubleSided": true,
      "name": "Material.002",
      "pbrMetallicRoughness": {
        "baseColorFactor": [
          0.0,
          0.0,
          0.0,
          1.0
        ],
        "roughnessFactor": 0.8543524685
      }
    },
    {
      "doubleSided": true,
      "name": "goma",
      "normalTexture": {
        "index": 2
      },
      "occlusionTexture": {
        "index": 1
      },
      "pbrMetallicRoughness": {
        "baseColorTexture": {
          "index": 0
        },
        "metallicFactor": 0.0,
        "metallicRoughnessTexture": {
          "index": 1
        },
        "roughnessFactor": 0.6
      }
    },
    {
      "doubleSided": true,
      "emissiveFactor": [
        1.0,
        1.0,
        1.0
      ],
      "emissiveTexture": {
        "index": 5
      },
      "name": "metal",
      "normalTexture": {
        "index": 6
      },
      "occlusionTexture": {
        "index": 4
      },
      "pbrMetallicRoughness": {
        "baseColorTexture": {
          "index": 3
        },
        "metallicRoughnessTexture": {
          "index": 4
        }
      }
    },
    {
      "doubleSided": true,
      "name": "plastico",
      "normalTexture": {
        "index": 9
      },
      "occlusionTexture": {
        "index": 8
      },
      "pbrMetallicRoughness": {
        "baseColorTexture": {
          "index": 7
        },
        "metallicRoughnessTexture": {
          "index": 8
        }
      }
    }
  ],
  "meshes": [
    {
      "name": "Object_0",
      "primitives": [
        {
          "attributes": {
            "NORMAL": 1,
            "POSITION": 0,
            "TEXCOORD_0": 2
          },
          "indices": 3,
          "material": 0,
          "mode": 4
        }
      ]
    },
    {
      "name": "Object_1",
      "primitives": [
        {
          "attributes": {
            "NORMAL": 5,
            "POSITION": 4,
            "TANGENT": 6,
            "TEXCOORD_0": 7
          },
          "indices": 8,
          "material": 1,
          "mode": 4
        }
      ]
    },
    {
      "name": "Object_2",
      "primitives": [
        {
          "attributes": {
            "NORMAL": 10,
            "POSITION": 9,
            "TANGENT": 11,
            "TEXCOORD_0": 12
          },
          "indices": 13,
          "material": 2,
          "mode": 4
        }
      ]
    },
    {
      "name": "Object_3",
      "primitives": [
        {
          "attributes": {
            "NORMAL": 15,
            "POSITION": 14,
            "TANGENT": 16,
            "TEXCOORD_0": 17
          },
          "indices": 18,
          "material": 3,
          "mode": 4
        }
      ]
    }
  ],
  "nodes": [
    {
      "children": [
        1
      ],
      "matrix": [
        0.507209062576294,
        0.0,
        0.0,
        0.0,
        0.0,
        1.1262303591414867e-16,
        -0.507209062576294,
        0.0,
        0.0,
        0.507209062576294,
        1.1262303591414867e-16,
        0.0,
        0.0,
        0.0,
        0.0,
        1.0
      ],
      "name": "Sketchfab_model"
    },
    {
      "children": [
        2,
        3,
        4,
        5
      ],
      "name": "arma futurista.obj.cleaner.materialmerger.gles"
    },
    {
      "mesh": 0,
      "name": "Object_2"
    },
    {
      "mesh": 1,
      "name": "Object_3"
    },
    {
      "mesh": 2,
      "name": "Object_4"
    },
    {
      "mesh": 3,
      "name": "Object_5"
    }
  ],
  "samplers": [
    {
      "magFilter": 9729,
      "minFilter": 9987,
      "wrapS": 10497,
      "wrapT": 10497
    }
  ],
  "scene": 0,
  "scenes": [
    {
      "name": "Sketchfab_Scene",
      "nodes": [
        0
      ]
    }
  ],
  "textures": [
    {
      "sampler": 0,
      "source": 0
    },
    {
      "sampler": 0,
      "source": 1
    },
    {
      "sampler": 0,
      "source": 2
    },
    {
      "sampler": 0,
      "source": 3
    },
    {
      "sampler": 0,
      "source": 4
    },
    {
      "sampler": 0,
      "source": 5
    },
    {
      "sampler": 0,
      "source": 6
    },
    {
      "sampler": 0,
      "source": 7
    },
    {
      "sampler": 0,
      "source": 8
    },
    {
      "sampler": 0,
      "source": 9
    }
  ]
}
